<svg xmlns="http://www.w3.org/2000/svg" version="1.1" xmlns:xlink="http://www.w3.org/1999/xlink" xmlns:svgjs="http://svgjs.dev/svgjs" width="1464" height="576" preserveAspectRatio="none" viewBox="0 0 1464 576">
    <g mask="url(&quot;#SvgjsMask1000&quot;)" fill="none">
        <path d="M -1399.3779698684884,318 C -1252.98,282.6 -960.18,94 -667.3779698684884,141 C -374.58,188 -228.18,563.4 64.62203013151156,553 C 357.42,542.6 516.75,89 796.6220301315116,89 C 1076.5,89 1330.52,460.2 1464,553" stroke="rgba(204, 0, 0, 1)" stroke-width="2"></path>
        <path d="M -375.54012377406684,90 C -229.14,130.8 63.66,306 356.45987622593316,294 C 649.26,282 795.66,-12.6 1088.4598762259332,30 C 1381.26,72.6 1745.35,455.8 1820.4598762259332,507 C 1895.57,558.2 1535.29,330.2 1464,286" stroke="rgba(204, 0, 0, 1)" stroke-width="2"></path>
        <path d="M -649.6238357744396,423 C -503.22,349.6 -210.42,29.8 82.37616422556044,56 C 375.18,82.2 521.58,535 814.3761642255604,554 C 1107.18,573 1416.45,189.2 1546.3761642255604,151 C 1676.3,112.8 1480.48,320.6 1464,363" stroke="rgba(204, 0, 0, 1)" stroke-width="2"></path>
        <path d="M -366.14774083325227,480 C -219.75,418.2 73.05,166 365.85225916674773,171 C 658.65,176 805.05,484.8 1097.8522591667477,505 C 1390.65,525.2 1756.62,267.4 1829.8522591667477,272 C 1903.08,276.6 1537.17,476.8 1464,528" stroke="rgba(204, 0, 0, 1)" stroke-width="2"></path>
    </g>
    <defs>
        <mask id="SvgjsMask1000">
            <rect width="1464" height="576" fill="#ffffff"></rect>
        </mask>
    </defs>
</svg>